<svg xmlns="http://www.w3.org/2000/svg" xmlns:xlink="http://www.w3.org/1999/xlink" width="2000" zoomAndPan="magnify" viewBox="0 0 1500 1499.999933" height="2000" preserveAspectRatio="xMidYMid meet" version="1.0"><path fill="#da9145" d="M 750 0 C 335.769531 0 0 335.769531 0 750 C 0 1164.210938 335.769531 1500 750 1500 C 1164.210938 1500 1500 1164.210938 1500 750 C 1500 335.769531 1164.210938 0 750 0 Z M 1096.835938 1148.242188 L 1044.105469 1200.953125 L 777.933594 841.269531 C 717.160156 897.652344 658.234375 945.742188 607.339844 984.742188 L 631.886719 1177.023438 L 609.917969 1198.992188 L 504.582031 1055.894531 C 461.03125 1080.898438 432.792969 1092.175781 421.21875 1080.601562 C 409.660156 1069.042969 419.503906 1039.394531 444.53125 995.824219 L 300.953125 890.011719 L 322.941406 868.042969 L 515.152344 892.519531 C 554.152344 841.625 601.394531 781.851562 657.777344 721.058594 L 298.957031 455.824219 L 351.6875 403.09375 L 826.886719 550.339844 C 1060.640625 326.207031 1161.917969 276.476562 1192.765625 307.324219 C 1223.613281 338.1875 1173.777344 439.359375 949.640625 673.09375 Z M 1096.835938 1148.242188 " fill-opacity="1" fill-rule="nonzero"/></svg>